<?xml version="1.0" encoding="utf-8"?>
<!-- Generator: Adobe Illustrator 17.0.0, SVG Export Plug-In . SVG Version: 6.00 Build 0)  -->
<!DOCTYPE svg PUBLIC "-//W3C//DTD SVG 1.1//EN" "http://www.w3.org/Graphics/SVG/1.1/DTD/svg11.dtd">
<svg version="1.1" id="Layer_1" xmlns="http://www.w3.org/2000/svg" xmlns:xlink="http://www.w3.org/1999/xlink" x="0px" y="0px"
	 width="1165.779px" height="365.857px" viewBox="0 0 1165.779 365.857" enable-background="new 0 0 1165.779 365.857"
	 xml:space="preserve">
<title>logo--color-black</title>
<g>
	<path fill="#333333" d="M1166.271,198.321c0-0.222,0-0.329-0.111-0.55c0-1.762-0.111-3.524-0.222-5.286
		c-0.107-1.762-0.329-3.52-0.55-5.283c0-0.44,0-0.883-0.111-1.323c-3.96-28.725-25.484-55.447-51.12-68.55
		c-11.784-5.776-24.738-8.768-37.864-8.746h-21.948c0-0.009,0.001-0.017,0.001-0.026h-13.505h-25.164h-7.107h-9.62h-3.885h-5.798
		h-3.885h-15.48h-9.683c-5.684,0-6.731,1.047-6.12,6.647c0.803,8.734,3.046,17.273,6.647,25.273c1.762,3.417,3.75,6.72,5.948,9.881
		c1.732,2.722,4.824,4.27,8.042,4.021h8.377c0.431,0.031,0.867,0.034,1.306,0h5.594h9.683h8.58c0.431,0.031,0.867,0.034,1.306,0
		h1.49h10.709c0.431,0.031,0.867,0.034,1.306,0h13.148h1.355c0,0.009,0.001,0.017,0.001,0.026h42.375
		c0.577,0.054,0.808,0.044,1.381,0.124l1.254,0.173c1.212,0.185,1.646,0.238,2.858,0.57c20.369,4.514,34.13,22.46,34.352,42.497
		c0.107,3.413-0.111,6.827-0.883,10.24c-0.99,5.504-3.081,10.68-6.055,15.194c-2.641,4.293-6.055,8.035-10.129,11.008
		c-4.403,3.413-9.468,5.837-15.083,7.266c-15.855,5.065-33.251,0.44-44.37-12.002c-8.038-7.817-12.442-18.603-12.22-29.837v-5.445
		c0.012,0.001,0.025,0.002,0.037,0.004v-4.905v-17.288v-4.906c0-3.853-1.869-5.615-5.393-5.175
		c-8.811,0.879-17.506,2.974-25.652,6.494c-3.413,1.651-6.827,3.635-10.022,5.726c-3.303,1.762-5.172,5.393-4.843,9.139v3.274
		c-0.042,0.523-0.047,1.052-0.002,1.585c-0.011,0.001-0.023,0.002-0.035,0.003v12.816c0,2.202-0.222,4.514-0.55,6.827
		c-2.641,12.331-10.24,23.011-21.138,29.398c-21.248,12.438-48.555,5.393-60.997-15.855c-2.592-4.667-4.338-9.686-5.367-14.85
		c2.095-23.576-5.076-47.703-21.279-66.647c-32.387-37.834-89.294-42.271-127.132-9.885c-17.594,14.636-28.649,35.655-30.751,58.463
		c-0.956,7.316-0.86,15.03-0.73,22.724c-0.004,0-0.004,0-0.008,0c0.019,1.682,0.031,3.356,0.019,5.019
		c0,2.492,1.093,4.828,3.119,6.23c2.733,2.102,5.539,3.815,8.428,5.451c9.128,4.434,19.031,7.159,29.176,8.096
		c3.513,0.233,5.072-1.326,5.149-5.141v-19.02c0-4.828-0.466-9.812-0.153-14.636c0.466-13.237,6.85-25.38,17.438-33.323
		c3.658-2.878,7.939-5.137,12.377-6.769c23.278-8.176,48.659,3.968,56.911,27.169c4.315,12.289,2.966,25.212-2.699,35.873
		c-5.057,9.533-13.566,17.258-24.551,21.115c-4.407,1.353-7.691,2.462-11.566,2.821h-96.159v0.004c-0.019,0-0.034-0.004-0.054-0.004
		c-23.664-1.41-42.172-21.363-41.828-45.306V21.016c0.008-3.528-1.766-6.819-4.721-8.749C657.35,5.066,644.886,0.842,631.978,0.028
		c-3.238-0.264-4.812,1.399-4.812,4.721v151.258c-0.107-0.019-0.214-0.038-0.321-0.057v44.488c0.027,1.044,0.065,2.076,0.122,3.108
		c0.001-0.013,0.002-0.027,0.003-0.04c0.165,3.204,0.454,6.377,0.868,9.611c2.706,17.72,10.462,33.572,21.738,46.182
		c0.023-0.023,0.046-0.046,0.065-0.069c2.034,2.244,4.178,4.388,6.425,6.422c10.596,9.586,22.835,16.176,35.697,19.861
		c7.033,2.011,14.257,3.157,21.497,3.448c0.367,0.015,0.738,0.027,1.105,0.038h87.914c0.134-0.027,0.271-0.05,0.409-0.073
		c0.363-0.061,0.726-0.122,1.093-0.176c2.534,0.092,5.076,0.08,7.622-0.042c10.11-0.489,20.262-2.691,30.032-6.727
		c12.457-5.153,23.144-12.778,31.729-22.063c0.122-0.134,0.241-0.271,0.352-0.405l0.333-0.31c1.984,2.202,4.075,4.296,6.276,6.276
		c37.104,33.69,94.573,30.827,128.263-6.276c1.984,2.202,4.185,4.403,6.387,6.387c32.479,29.394,80.151,30.827,114.17,6.276
		c1.101-0.772,2.202-1.54,3.303-2.534c3.857-3.081,7.377-6.383,10.791-10.129c0.111,0.111,0.111,0.111,0.111,0.222
		C1158.561,242.691,1166.6,220.781,1166.271,198.321z"/>
	<path fill="#333333" d="M578.328,0.461c-12.992,0.772-25.43,4.954-36.114,12.22c-2.97,1.873-4.732,5.175-4.732,8.7v178.248
		c0,23.45-18.168,42.497-41.178,44.259c-1.208,0-2.202,0.329-3.41,0.329c-24.555,0-44.592-19.926-44.592-44.588v-67.82
		c0.44-3.746-1.43-7.266-4.625-9.25c-3.192-1.98-6.383-3.853-9.797-5.615c-7.706-3.302-15.966-5.504-24.333-6.383
		c-5.944-0.661-7.045,0.44-7.045,6.383v85.216c0.111,1.323,0.111,2.645,0,4.075c-1.873,12.109-8.478,22.46-17.835,29.287
		c0-0.111-0.111-0.111-0.111-0.222c-4.075,2.974-8.7,5.175-13.875,6.494c-5.283,1.655-10.787,2.313-16.184,1.873
		c-1.758,0-3.303-0.218-4.954-0.661c-1.651-0.329-3.192-0.768-4.732-1.319c-1.101-0.222-2.202-0.661-3.195-1.212
		c-1.651-0.661-3.303-1.433-4.843-2.313c-1.212-0.661-2.423-1.323-3.524-2.202c-0.657-0.333-1.101-0.661-1.651-1.212
		c-0.44-0.329-0.99-0.772-1.54-1.323c-0.44-0.44-0.772-0.879-1.212-1.101c-0.879-0.768-1.762-1.651-2.53-2.53
		c-8.038-7.817-12.442-18.718-12.22-29.948V182.45c0.329-3.742-1.544-7.373-4.736-9.246c-3.303-2.091-6.605-3.964-10.129-5.615
		c-8.145-3.524-16.845-5.726-25.652-6.498c-3.524-0.44-5.397,1.323-5.397,5.175v34.902c0,2.313-0.107,4.625-0.55,6.827
		c-1.599,7.794-5.268,14.927-10.503,20.733c-3.047,3.38-6.623,6.312-10.635,8.661c-21.138,12.553-48.552,5.397-60.993-15.851
		c-2.62-4.778-4.214-10.02-5.198-15.404c-0.057-0.311-0.112-0.622-0.165-0.933c-0.061-0.363-0.122-0.726-0.176-1.093
		c0.463-12.599-1.716-25.426-6.769-37.654c-5.153-12.457-12.778-23.144-22.063-31.729c-0.153-0.138-0.306-0.271-0.459-0.401
		c-3.046-2.672-6.043-5.309-9.388-7.714c-33.709-23.431-79.016-21.252-110.237,5.451c-37.834,32.387-42.271,89.294-9.885,127.132
		c14.636,17.594,35.655,28.649,58.463,30.751c7.317,0.952,15.031,0.86,22.723,0.729c0,0.002,0.001,0.004,0.002,0.006
		c1.68-0.019,3.354-0.028,5.018-0.016c2.492,0,4.828-1.095,6.23-3.122c2.102-2.731,3.815-5.539,5.451-8.427
		c4.434-9.128,7.159-19.033,8.096-29.176c0.233-3.512-1.326-5.071-5.141-5.148h-15.671h-1.784h-1.565
		c-4.828,0-9.812,0.466-14.636,0.153c-13.237-0.466-25.38-6.85-33.323-17.438c-2.878-3.658-5.137-7.939-6.769-12.377
		c-8.176-23.278,3.968-48.659,27.169-56.911c12.289-4.315,25.212-2.966,35.873,2.699c9.533,5.057,17.258,13.566,21.115,24.551
		c1.865,6.07,2.645,12.457,2.255,18.76c0.011,6.246,0.019,12.491,0.023,18.733c0.031,35.41-0.023,70.824-0.023,106.296
		c-0.31,4.671,1.246,6.074,5.607,5.607c7.549-0.86,14.869-2.572,22.028-5.061c4.908-1.793,9.499-4.205,13.627-7.396
		c2.878-2.102,4.438-5.374,4.357-8.876l-0.05-35.617c0.022,0.012,0.044,0.023,0.066,0.036c23.818,13.165,52.072,14.749,76.826,5.117
		c12.71-4.945,24.497-12.844,34.286-23.657c1.98,2.313,4.185,4.403,6.383,6.494c1.544,1.323,2.974,2.645,4.625,3.857
		c-0.107,0.107-0.329,0.218-0.55,0.329c4.296,3.192,8.811,6.055,13.432,8.367c1.651,0.883,3.195,1.54,4.736,2.313
		c0.55,0.329,1.212,0.661,1.762,0.879c1.43,0.661,2.97,1.212,4.403,1.762c0.111,0.111,0.222,0.111,0.329,0.111
		c2.202,0.879,4.403,1.54,6.605,2.091c2.534,0.772,5.068,1.433,7.599,1.873c1.212,0.329,2.423,0.55,3.635,0.661
		c1.54,0.218,3.081,0.44,4.621,0.661c1.544,0.111,3.192,0.218,4.736,0.329c4.621,0.329,9.135,0.222,13.76-0.329
		c1.54-0.222,3.085-0.333,4.625-0.55c11.008-1.544,21.91-5.286,31.817-11.012c0-0.107,0.111-0.218,0.111-0.329
		c7.706-4.514,14.861-10.351,21.138-17.285c2.095,2.313,4.296,4.514,6.498,6.494c18.386,16.627,41.725,24.222,64.625,23.339
		c16.845-0.658,33.472-6.384,47.894-16.513v0.111c0.99-0.661,1.98-1.544,2.863-2.202c1.319-0.994,2.641-1.762,3.853-2.752
		l-0.111-0.111c16.406-13.653,27.854-33.029,31.267-55.378c0.55-4.296,0.883-8.478,0.994-12.774V5.195
		C583.064,1.783,581.519,0.132,578.328,0.461z"/>
	<path fill="#333333" d="M418.493,322.642c-2.524-1.762-5.107-3.435-8.078-4.907c-2.043-1.149-4.805-1.204-7.435-0.311
		c-0.051,0.017-0.106,0.038-0.162,0.055c-0.123,0.064-0.247,0.123-0.374,0.179c-13.13,6.218-28.695,9.819-45.374,9.819
		c-0.095,0-0.19-0.002-0.285-0.002s-0.19,0.002-0.285,0.002c-16.68,0-32.244-3.601-45.374-9.819
		c-0.128-0.055-0.251-0.115-0.374-0.179c-0.055-0.017-0.111-0.038-0.162-0.055c-2.63-0.894-5.392-0.838-7.435,0.311
		c-2.971,1.473-5.554,3.145-8.078,4.907c-7.201,5.848-12.815,12.938-16.612,20.863c-0.796,1.809-0.553,3.218,0.821,4.375
		c1.2,0.621,2.409,1.226,3.635,1.817c21.225,10.227,46.481,16.16,73.579,16.16c0.095,0,0.19-0.002,0.285-0.002
		s0.19,0.002,0.285,0.002c27.099,0,52.354-5.933,73.579-16.16c1.226-0.592,2.435-1.196,3.635-1.817
		c1.375-1.158,1.617-2.566,0.821-4.375C431.308,335.581,425.694,328.49,418.493,322.642z"/>
	<path fill="#333333" d="M228.808,133.866c2.524,1.762,5.107,3.435,8.078,4.907c2.043,1.149,4.805,1.204,7.435,0.311
		c0.051-0.017,0.106-0.038,0.162-0.055c0.123-0.064,0.247-0.123,0.375-0.179c13.13-6.218,28.695-9.819,45.374-9.819
		c0.095,0,0.19,0.002,0.285,0.002s0.19-0.002,0.285-0.002c16.68,0,32.244,3.601,45.374,9.819c0.128,0.055,0.251,0.115,0.374,0.179
		c0.055,0.017,0.111,0.038,0.162,0.055c2.63,0.894,5.392,0.839,7.435-0.311c2.971-1.473,5.554-3.145,8.078-4.907
		c7.201-5.848,12.815-12.939,16.612-20.863c0.796-1.809,0.553-3.218-0.821-4.375c-1.2-0.621-2.409-1.226-3.635-1.817
		c-21.225-10.227-46.481-16.16-73.579-16.16c-0.095,0-0.19,0.002-0.285,0.002s-0.19-0.002-0.285-0.002
		c-27.099,0-52.354,5.933-73.579,16.16c-1.226,0.592-2.434,1.196-3.635,1.817c-1.375,1.158-1.617,2.566-0.821,4.375
		C215.993,120.927,221.606,128.018,228.808,133.866z"/>
	<path fill="#333333" d="M745.798,74.421c2.524,1.762,5.107,3.435,8.078,4.907c2.043,1.149,4.805,1.204,7.435,0.311
		c0.051-0.017,0.106-0.038,0.162-0.055c0.123-0.064,0.247-0.123,0.374-0.179c13.13-6.218,28.695-9.819,45.374-9.819
		c0.095,0,0.19,0.002,0.285,0.002s0.19-0.002,0.285-0.002c16.68,0,32.244,3.601,45.374,9.819c0.128,0.055,0.251,0.115,0.375,0.179
		c0.055,0.017,0.111,0.038,0.162,0.055c2.63,0.894,5.392,0.839,7.435-0.311c2.971-1.473,5.554-3.145,8.078-4.907
		c7.201-5.848,12.815-12.939,16.612-20.863c0.796-1.809,0.553-3.218-0.821-4.375c-1.2-0.621-2.409-1.226-3.635-1.817
		c-21.225-10.227-46.481-16.16-73.579-16.16c-0.095,0-0.19,0.002-0.285,0.002s-0.19-0.002-0.285-0.002
		c-27.099,0-52.354,5.933-73.579,16.16c-1.226,0.592-2.434,1.196-3.635,1.817c-1.375,1.158-1.617,2.566-0.821,4.375
		C732.983,61.482,738.597,68.573,745.798,74.421z"/>
</g>
</svg>
